<svg width="605" height="492" viewBox="0 0 605 492" fill="none" xmlns="http://www.w3.org/2000/svg">
<path d="M75.2434 224.654H50.1488L46.6741 235.271C46.6741 235.271 44.448 243.758 45.1298 249.183C45.9384 255.615 47.0926 260.044 51.693 264.559C55.6161 268.408 60.3001 268.917 65.5916 270.782C73.3643 273.522 86.8256 270.782 86.8256 270.782C86.8256 270.782 98.9621 269.688 106.515 266.389C117.543 261.573 124.685 256.651 133.926 249.183C139.778 244.454 147.053 235.271 147.053 235.271L157.477 218.797C157.477 218.797 157.832 226.604 160.951 230.146C163.721 233.29 166.67 234.548 170.603 235.271C175.487 236.17 178.597 236.686 183.343 235.271C190.666 233.089 197.242 222.092 197.242 222.092L203.033 206.35L192.995 215.868C192.995 215.868 187.613 219.406 183.343 218.797C176.794 217.862 175.253 215.156 172.92 209.278C170.561 203.337 171.231 197.849 172.92 191.706C174.508 185.925 175.291 183.37 177.552 177.794C179.814 172.218 181.56 168.799 184.502 163.516C187.04 158.958 192.223 152.534 192.223 152.534C192.223 152.534 198.234 146.801 201.489 148.873C204.288 150.655 203.033 156.927 203.033 156.927L212.685 141.551L221.178 131.3L219.248 123.246C219.248 123.246 205.072 120.406 196.856 123.246C189.002 125.961 185.977 130.281 180.255 136.059C175.011 141.354 172.546 144.803 168.673 151.069C165.057 156.919 163.905 161.087 161.723 167.544C159.206 174.997 157.477 186.58 157.477 186.58C157.477 186.58 137.376 185.666 129.293 177.794C124.307 172.937 121.511 169.163 120.8 162.418C119.663 151.635 122.194 147.481 129.293 138.988C136.58 130.272 157.477 118.853 157.477 118.853L145.508 151.069C145.508 151.069 175.358 124.292 196.856 110.067C220.106 94.6817 234.732 88.2526 260.172 76.3859C289.342 62.7791 337 46 337 46L295.69 55.8846L262.102 66.5013L205.35 89.1992L230.058 69.4301L196.856 78.2164C196.856 78.2164 176.387 84.5644 164.04 90.2975C154.517 94.7194 148.39 96.5932 139.717 102.379C131.491 107.866 123.295 112.513 115.781 118.853C108.051 125.374 104.291 127.989 98.4077 136.059C93.0714 143.379 91.2032 147.47 87.9838 155.828C84.9071 163.816 84.6419 169.312 85.2813 177.794C85.7984 184.654 87.7329 188.603 91.8445 194.268C96.1463 200.196 99.4424 203.743 106.515 206.35C109.96 207.619 115.781 208.18 115.781 208.18C115.781 208.18 122.337 208.165 125.433 210.377C130.281 213.84 129.833 218.921 129.293 224.654C128.213 236.141 120.527 240.862 109.99 246.62C99.1259 252.557 76.7248 263.956 70.6105 253.576C67.7325 248.69 68.7758 246.358 68.6802 240.762C68.5837 235.116 75.2434 224.654 75.2434 224.654Z" fill="url(#paint0_linear_5_26)"/>
<path fill-rule="evenodd" clip-rule="evenodd" d="M203.033 177.794C201.18 188.84 203.033 206.35 203.033 206.35C203.033 206.35 208.849 216.324 215.387 218.797C225.433 222.595 231.539 217.737 239.559 211.355C240.114 210.914 240.679 210.464 241.254 210.011C252.197 201.378 257.502 192.26 261.33 179.259C265.952 163.56 270.109 149.358 260.172 136.059C255.202 129.409 251.263 127.223 242.799 125.809C229.731 123.625 217.318 143.381 217.318 143.381C217.318 143.381 205.412 163.615 203.033 177.794ZM221.178 163.516C224.291 158.521 232 156 232 156C232 156 244.048 154.675 246.5 160C249.011 165.454 248.063 169.25 247.5 175.5C246.909 182.063 242.799 191.706 242.799 191.706C242.799 191.706 236.234 203.447 231.5 206.35C227.375 208.878 221.752 209.668 217.318 206.35C214.468 204.217 213.944 202.89 212.685 198.5C210.938 192.409 214 181.5 214 181.5C214 181.5 217.08 170.095 221.178 163.516Z" fill="url(#paint1_linear_5_26)"/>
<path d="M279.149 145.287V209L302.489 113.797L291.776 121.12L299.811 98.7837L328.89 91.0942L312.438 141.625L320.473 135.4L304.785 189.593L346.108 113.797L334.63 117.824L351.848 87.4325L386.666 84.8694H422.633H485L474.669 75.7152L449.034 71.6874L454.008 60.7024L386.666 71.6874L304.785 87.4325L351.848 71.6874L422.633 57.773H370.979L386.666 38L304.785 67.6595L238.974 98.7837L234 113.797L279.149 95.1221L270.349 152.244L279.149 145.287Z" fill="url(#paint2_linear_5_26)"/>
<path fill-rule="evenodd" clip-rule="evenodd" d="M87.2656 473L101.099 371.8L135.3 352.367C135.3 352.367 149.553 341.823 155.666 332.567C162.762 321.822 166.426 301.4 166.426 301.4C166.426 301.4 166.907 286.112 161.43 279.033C156.465 272.617 151.234 270.758 143.369 268.767C131.736 265.82 113.012 273.533 113.012 273.533L83.8071 286.367L40 301.4V345.4L79.5801 325.233L76.8902 416.533L79.5801 453.2L83.8071 449.167L87.2656 473ZM123.003 345.4C116.277 350.5 103.789 355.3 103.789 355.3L108.401 310.933L118.392 305.433C118.392 305.433 128.555 300.634 135.3 301.4C139.898 301.922 140.859 302.177 143.5 305.433C148.371 311.439 144.03 318.05 140.295 325.233C135.51 334.438 131.269 339.132 123.003 345.4Z" fill="url(#paint3_linear_5_26)"/>
<path d="M177.954 257.4L209.849 240.533L192.172 310.933L201.01 305.433L171.806 416.533L177.954 342.1L166.426 349.433L177.954 257.4Z" fill="url(#paint4_linear_5_26)"/>
<path d="M227.91 233.933L254.04 224.767L217.918 314.233L239.053 297.367L244.433 286.367C244.433 286.367 246.883 268.357 250.582 257.4C254.55 245.645 262.878 231 262.878 231C262.878 231 273.692 214.486 283 207.5C288.476 203.39 297.5 200 297.5 200C297.5 200 304.45 199.408 306.685 202.4C310.456 207.448 306.685 218.533 306.685 218.533L298.616 228.8C298.616 228.8 301.998 220.686 298.616 218.533C296.463 217.164 294.585 218.035 292.083 218.533C285.948 219.755 279.786 228.8 279.786 228.8L269.795 247.867L260.957 268.767C260.957 268.767 258.097 280.311 262.878 283.8C266.757 286.631 275.175 283.8 275.175 283.8C275.175 283.8 281.327 279.059 285 273.5C288.1 268.809 292.083 257.4 292.083 257.4L289.393 248.967L279.786 253.367L286.703 242.733L306.685 237.233L298.616 286.367L289.393 314.233L286.703 305.433L283.245 314.233L286.703 286.367C286.703 286.367 282.185 300.278 275.175 305.433C270.379 308.961 266.909 311.075 260.957 310.933C253.509 310.756 244.433 301.4 244.433 301.4V310.933L223.298 328.167L201.01 345.4L227.91 233.933Z" fill="url(#paint5_linear_5_26)"/>
<path fill-rule="evenodd" clip-rule="evenodd" d="M303.227 320.1L316.292 205.7H311.681V197.267H308.607L309.76 193.233H303.611L316.292 184.433L347.418 173.8C347.418 173.8 359.138 169.986 364.711 173.8C368.733 176.552 371.243 184.433 371.243 184.433C371.243 184.433 371.605 192.468 370.091 197.267C368.248 203.104 361.637 210.467 361.637 210.467C361.637 210.467 356.234 216.501 352.414 220C347.629 224.383 339.349 230.267 339.349 230.267L332.047 236.133L334.737 257.4L346.266 242.733L348.955 262.533V314.233L339.349 268.767L328.589 283.8L323.593 253.367L303.227 320.1ZM329.358 228.8L336.274 199.833C336.274 199.833 340.04 197.115 342.807 196.167C345.675 195.184 347.808 193.658 350.493 195.067C352.529 196.135 353.298 197.628 353.951 199.833C355.254 204.232 348.955 210.467 348.955 210.467L340 219.5L329.358 228.8Z" fill="url(#paint6_linear_5_26)"/>
<path d="M384.309 170.5L421.199 149.233L386.23 223.667L394.3 218.533L361.637 310.933L370.091 248.967L361.637 253.367L384.309 170.5Z" fill="url(#paint7_linear_5_26)"/>
<path d="M382.772 288.2L396.99 228.8L424.657 159.867L429.269 218.533L529.948 116.233L538.018 111.833L534.559 119.9L552.236 110L554.926 116.233L547.625 126.5L558 119.9L504.97 202.4L534.559 195.067L478.455 283.8L431.574 380.967L451.941 301.4L476.15 237.233L460.395 245.3L485.372 190.667L416.972 253.367L414.282 214.867L382.772 288.2Z" fill="url(#paint8_linear_5_26)"/>
<path d="M245 342.047V337H273.057V342.047H263.833V368H253.84V342.047H245Z" fill="url(#paint9_linear_5_26)"/>
<path fill-rule="evenodd" clip-rule="evenodd" d="M280.744 368H289.199V358.628H303.036V368H312.26V341.326H307.263V337H284.972V341.326H280.744V368ZM301.498 353.581H289.584V342.047H301.498V353.581Z" fill="url(#paint10_linear_5_26)"/>
<path d="M321.484 368L321.1 337H328.402V349.616H333.014V345.291H337.626V341.326H342.238V337.36H352.231V341.326H347.619V345.291H343.007V349.616H338.395V353.942H342.238V358.267H346.851V362.593H351.463V368H343.007V363.314H338.395V358.988H333.014V354.663H329.171V368H321.484Z" fill="url(#paint11_linear_5_26)"/>
<path d="M359.149 368V337.36H389.897V341.326H367.605V349.616H384.9V354.302H367.605V362.593H389.897V368H359.149Z" fill="url(#paint12_linear_5_26)"/>
<path d="M402.196 368H424.872V363.314H429.1V354.663H424.872V349.616H406.808V341.326H420.26V346.372H429.1V341.326H424.872V337.36H402.196V341.326H397.968V349.616H401.427V354.663H419.107V363.314H406.808V358.628H397.968V363.314H402.196V368Z" fill="url(#paint13_linear_5_26)"/>
<path fill-rule="evenodd" clip-rule="evenodd" d="M465.228 368V363.314H460.231V341.326H465.228V337.36H487.135V341.326H491.747V363.314H487.135V368H465.228ZM482.139 362.233H470.609V342.407H482.139V362.233Z" fill="url(#paint14_linear_5_26)"/>
<path d="M501.74 368V337.36H531.719V342.407H509.427V349.256H526.722V355.023H509.427V368H501.74Z" fill="url(#paint15_linear_5_26)"/>
<path d="M539.406 368L540.174 337.36H569V342.407H548.246V349.256H564.004V355.023H547.093V368H539.406Z" fill="url(#paint16_linear_5_26)"/>
<defs>
<linearGradient id="paint0_linear_5_26" x1="191.065" y1="46" x2="191.065" y2="270.782" gradientUnits="userSpaceOnUse">
<stop offset="0.355" stop-color="#DB614E"/>
<stop offset="0.69" stop-color="#EFD187"/>
</linearGradient>
<linearGradient id="paint1_linear_5_26" x1="191.065" y1="46" x2="191.065" y2="270.782" gradientUnits="userSpaceOnUse">
<stop offset="0.355" stop-color="#DB614E"/>
<stop offset="0.69" stop-color="#EFD187"/>
</linearGradient>
<linearGradient id="paint2_linear_5_26" x1="359.556" y1="38" x2="359.556" y2="208.079" gradientUnits="userSpaceOnUse">
<stop offset="0.355" stop-color="#DB614E"/>
<stop offset="0.69" stop-color="#EFD187"/>
</linearGradient>
<linearGradient id="paint3_linear_5_26" x1="299.115" y1="110" x2="299.115" y2="471.044" gradientUnits="userSpaceOnUse">
<stop offset="0.405" stop-color="#EFD187"/>
<stop offset="0.62" stop-color="#DB614E"/>
</linearGradient>
<linearGradient id="paint4_linear_5_26" x1="299.115" y1="110" x2="299.115" y2="471.044" gradientUnits="userSpaceOnUse">
<stop offset="0.405" stop-color="#EFD187"/>
<stop offset="0.62" stop-color="#DB614E"/>
</linearGradient>
<linearGradient id="paint5_linear_5_26" x1="299.115" y1="110" x2="299.115" y2="471.044" gradientUnits="userSpaceOnUse">
<stop offset="0.405" stop-color="#EFD187"/>
<stop offset="0.62" stop-color="#DB614E"/>
</linearGradient>
<linearGradient id="paint6_linear_5_26" x1="299.115" y1="110" x2="299.115" y2="471.044" gradientUnits="userSpaceOnUse">
<stop offset="0.405" stop-color="#EFD187"/>
<stop offset="0.62" stop-color="#DB614E"/>
</linearGradient>
<linearGradient id="paint7_linear_5_26" x1="299.115" y1="110" x2="299.115" y2="471.044" gradientUnits="userSpaceOnUse">
<stop offset="0.405" stop-color="#EFD187"/>
<stop offset="0.62" stop-color="#DB614E"/>
</linearGradient>
<linearGradient id="paint8_linear_5_26" x1="299.115" y1="110" x2="299.115" y2="471.044" gradientUnits="userSpaceOnUse">
<stop offset="0.405" stop-color="#EFD187"/>
<stop offset="0.62" stop-color="#DB614E"/>
</linearGradient>
<linearGradient id="paint9_linear_5_26" x1="245" y1="337" x2="245" y2="367.279" gradientUnits="userSpaceOnUse">
<stop stop-color="#56FFE0"/>
<stop offset="0.16" stop-color="#56FFE0"/>
<stop offset="0.475" stop-color="#F9FFF6"/>
<stop offset="0.825" stop-color="#56FFE0"/>
<stop offset="1" stop-color="#50FFD5"/>
</linearGradient>
<linearGradient id="paint10_linear_5_26" x1="245" y1="337" x2="245" y2="367.279" gradientUnits="userSpaceOnUse">
<stop stop-color="#56FFE0"/>
<stop offset="0.16" stop-color="#56FFE0"/>
<stop offset="0.475" stop-color="#F9FFF6"/>
<stop offset="0.825" stop-color="#56FFE0"/>
<stop offset="1" stop-color="#50FFD5"/>
</linearGradient>
<linearGradient id="paint11_linear_5_26" x1="245" y1="337" x2="245" y2="367.279" gradientUnits="userSpaceOnUse">
<stop stop-color="#56FFE0"/>
<stop offset="0.16" stop-color="#56FFE0"/>
<stop offset="0.475" stop-color="#F9FFF6"/>
<stop offset="0.825" stop-color="#56FFE0"/>
<stop offset="1" stop-color="#50FFD5"/>
</linearGradient>
<linearGradient id="paint12_linear_5_26" x1="245" y1="337" x2="245" y2="367.279" gradientUnits="userSpaceOnUse">
<stop stop-color="#56FFE0"/>
<stop offset="0.16" stop-color="#56FFE0"/>
<stop offset="0.475" stop-color="#F9FFF6"/>
<stop offset="0.825" stop-color="#56FFE0"/>
<stop offset="1" stop-color="#50FFD5"/>
</linearGradient>
<linearGradient id="paint13_linear_5_26" x1="245" y1="337" x2="245" y2="367.279" gradientUnits="userSpaceOnUse">
<stop stop-color="#56FFE0"/>
<stop offset="0.16" stop-color="#56FFE0"/>
<stop offset="0.475" stop-color="#F9FFF6"/>
<stop offset="0.825" stop-color="#56FFE0"/>
<stop offset="1" stop-color="#50FFD5"/>
</linearGradient>
<linearGradient id="paint14_linear_5_26" x1="245" y1="337" x2="245" y2="367.279" gradientUnits="userSpaceOnUse">
<stop stop-color="#56FFE0"/>
<stop offset="0.16" stop-color="#56FFE0"/>
<stop offset="0.475" stop-color="#F9FFF6"/>
<stop offset="0.825" stop-color="#56FFE0"/>
<stop offset="1" stop-color="#50FFD5"/>
</linearGradient>
<linearGradient id="paint15_linear_5_26" x1="245" y1="337" x2="245" y2="367.279" gradientUnits="userSpaceOnUse">
<stop stop-color="#56FFE0"/>
<stop offset="0.16" stop-color="#56FFE0"/>
<stop offset="0.475" stop-color="#F9FFF6"/>
<stop offset="0.825" stop-color="#56FFE0"/>
<stop offset="1" stop-color="#50FFD5"/>
</linearGradient>
<linearGradient id="paint16_linear_5_26" x1="245" y1="337" x2="245" y2="367.279" gradientUnits="userSpaceOnUse">
<stop stop-color="#56FFE0"/>
<stop offset="0.16" stop-color="#56FFE0"/>
<stop offset="0.475" stop-color="#F9FFF6"/>
<stop offset="0.825" stop-color="#56FFE0"/>
<stop offset="1" stop-color="#50FFD5"/>
</linearGradient>
</defs>
</svg>
